<svg width="15" height="17" viewBox="0 0 15 17" fill="none" xmlns="http://www.w3.org/2000/svg">
<path d="M12.104 16.5H2.89603C1.29911 16.5 0 15.1255 0 13.4365V4.92144C0 3.23242 1.29911 1.85796 2.89603 1.85796H3.45542V1.11962C3.45542 0.7774 3.71766 0.5 4.04117 0.5C4.36469 0.5 4.62692 0.7774 4.62692 1.11962V1.85796H10.3731V1.11962C10.3731 0.7774 10.6353 0.5 10.9588 0.5C11.2823 0.5 11.5446 0.7774 11.5446 1.11962V1.85796H12.104C13.7009 1.85796 15 3.23218 15 4.92144V13.4363C15 15.1255 13.7009 16.4998 12.104 16.4998V16.5ZM1.17128 6.42717V13.4365C1.17128 14.4425 1.94503 15.261 2.89603 15.261H12.104C13.055 15.261 13.8287 14.4425 13.8287 13.4365V6.42717H1.17128ZM1.17128 5.18816H13.8285V4.92168C13.8285 3.91569 13.0547 3.0972 12.1038 3.0972H11.5444V4.30531C11.5444 4.64753 11.2821 4.92493 10.9586 4.92493C10.6351 4.92493 10.3729 4.64753 10.3729 4.30531V3.0972H4.62692V4.30531C4.62692 4.64753 4.36469 4.92493 4.04117 4.92493C3.71766 4.92493 3.45542 4.64753 3.45542 4.30531V3.0972H2.89603C1.94503 3.0972 1.17128 3.91569 1.17128 4.92168V5.18816ZM11.5347 13.4642H10.383C10.0594 13.4642 9.79721 13.1868 9.79721 12.8445C9.79721 12.5023 10.0594 12.2249 10.383 12.2249H11.5347C11.8582 12.2249 12.1204 12.5023 12.1204 12.8445C12.1204 13.1868 11.8582 13.4642 11.5347 13.4642ZM8.07268 13.4642H6.92095C6.59743 13.4642 6.3352 13.1868 6.3352 12.8445C6.3352 12.5023 6.59743 12.2249 6.92095 12.2249H8.07268C8.3962 12.2249 8.65843 12.5023 8.65843 12.8445C8.65843 13.1868 8.3962 13.4642 8.07268 13.4642ZM4.61704 13.4642H3.46531C3.14179 13.4642 2.87956 13.1868 2.87956 12.8445C2.87956 12.5023 3.14179 12.2249 3.46531 12.2249H4.61704C4.94055 12.2249 5.20279 12.5023 5.20279 12.8445C5.20279 13.1868 4.94055 13.4642 4.61704 13.4642ZM11.5347 9.80894H10.383C10.0594 9.80894 9.79721 9.53154 9.79721 9.18932C9.79721 8.8471 10.0594 8.5697 10.383 8.5697H11.5347C11.8582 8.5697 12.1204 8.8471 12.1204 9.18932C12.1204 9.53154 11.8582 9.80894 11.5347 9.80894ZM8.07268 9.80894H6.92095C6.59743 9.80894 6.3352 9.53154 6.3352 9.18932C6.3352 8.8471 6.59743 8.5697 6.92095 8.5697H8.07268C8.3962 8.5697 8.65843 8.8471 8.65843 9.18932C8.65843 9.53154 8.3962 9.80894 8.07268 9.80894ZM4.61704 9.80894H3.46531C3.14179 9.80894 2.87956 9.53154 2.87956 9.18932C2.87956 8.8471 3.14179 8.5697 3.46531 8.5697H4.61704C4.94055 8.5697 5.20279 8.8471 5.20279 9.18932C5.20279 9.53154 4.94055 9.80894 4.61704 9.80894Z" fill="#5A5A5A"/>
<path d="M0.570312 5.72518L0.811904 3.93625L2.23949 2.79784L4.5456 2.68167L10.4756 2.51904L13.1331 2.68167L14.4509 3.84332L14.6266 6.18983L0.570312 5.72518Z" fill="#5A5A5A"/>
</svg>
