<svg width="19" height="20" viewBox="0 0 19 20" fill="none" xmlns="http://www.w3.org/2000/svg">
<path fill-rule="evenodd" clip-rule="evenodd" d="M2.5 6.15825C2.5 5.82976 2.77066 5.56348 3.10455 5.56348H15.1955C15.5293 5.56348 15.8 5.82976 15.8 6.15825C15.8 6.48673 15.5293 6.75302 15.1955 6.75302H3.10455C2.77066 6.75302 2.5 6.48673 2.5 6.15825Z" fill="#FC5555"/>
<path fill-rule="evenodd" clip-rule="evenodd" d="M7.80708 4.18954C7.60512 4.18954 7.41509 4.26622 7.27787 4.39707C7.14129 4.5273 7.06819 4.69991 7.06819 4.87582V5.56209H11.2328V4.87582C11.2328 4.69991 11.1597 4.5273 11.0232 4.39707C10.8859 4.26622 10.6959 4.18954 10.4939 4.18954H7.80708ZM12.4419 5.56209V4.87582C12.4419 4.37221 12.232 3.89314 11.8646 3.54289C11.498 3.19326 11.0046 3 10.4939 3H7.80708C7.29643 3 6.80304 3.19326 6.43638 3.54289C6.06907 3.89314 5.8591 4.37221 5.8591 4.87582V5.56209H4.44849C4.11461 5.56209 3.84395 5.82838 3.84395 6.15686V15.1242C3.84395 15.6278 4.05392 16.1069 4.42123 16.4571C4.78789 16.8067 5.28128 17 5.79193 17H12.5091C13.0197 17 13.5131 16.8067 13.8798 16.4571C14.2471 16.1069 14.4571 15.6278 14.4571 15.1242V6.15686C14.4571 5.82838 14.1864 5.56209 13.8525 5.56209H12.4419ZM5.05304 6.75163V15.1242C5.05304 15.3001 5.12614 15.4727 5.26272 15.6029C5.39994 15.7338 5.58997 15.8105 5.79193 15.8105H12.5091C12.7111 15.8105 12.9011 15.7338 13.0383 15.6029C13.1749 15.4727 13.248 15.3001 13.248 15.1242V6.75163H5.05304Z" fill="#FC5555"/>
<path fill-rule="evenodd" clip-rule="evenodd" d="M7.80699 8.76543C8.14087 8.76543 8.41153 9.03172 8.41153 9.3602V13.2033C8.41153 13.5318 8.14087 13.7981 7.80699 13.7981C7.47311 13.7981 7.20244 13.5318 7.20244 13.2033V9.3602C7.20244 9.03172 7.47311 8.76543 7.80699 8.76543Z" fill="#FC5555"/>
<path fill-rule="evenodd" clip-rule="evenodd" d="M10.4942 8.76543C10.8281 8.76543 11.0987 9.03172 11.0987 9.3602V13.2033C11.0987 13.5318 10.8281 13.7981 10.4942 13.7981C10.1603 13.7981 9.88965 13.5318 9.88965 13.2033V9.3602C9.88965 9.03172 10.1603 8.76543 10.4942 8.76543Z" fill="#FC5555"/>
</svg>
