<svg width="10" height="6" viewBox="0 0 10 6" fill="none" xmlns="http://www.w3.org/2000/svg">
<path d="M0.190878 1.28922L4.54169 5.62879C4.79445 5.88155 5.20635 5.88155 5.45951 5.62879L9.80993 1.28963C9.93249 1.16666 10 1.00391 10 0.830717C10 0.65752 9.93249 0.494771 9.80993 0.373012C9.68736 0.250448 9.52461 0.182937 9.35102 0.182937C9.17742 0.182937 9.01467 0.250447 8.89251 0.372609L5.0002 4.25406L1.1083 0.372207C0.855135 0.119846 0.443642 0.119846 0.190075 0.372207C0.067512 0.494771 4.5114e-07 0.657921 4.35998e-07 0.831118C4.20857e-07 1.00431 0.067512 1.16706 0.190075 1.28922L0.190878 1.28922Z" fill="#444444"/>
</svg>
