<svg width="19" height="19" viewBox="0 0 19 19" fill="none" xmlns="http://www.w3.org/2000/svg">
<path fill-rule="evenodd" clip-rule="evenodd" d="M8.87305 14.7645C8.87305 14.3347 9.22145 13.9863 9.65122 13.9863H15.3728C15.8026 13.9863 16.151 14.3347 16.151 14.7645C16.151 15.1943 15.8026 15.5427 15.3728 15.5427H9.65122C9.22145 15.5427 8.87305 15.1943 8.87305 14.7645Z" fill="#888888"/>
<path fill-rule="evenodd" clip-rule="evenodd" d="M13.4646 4.55635C13.3156 4.55635 13.1713 4.616 13.0638 4.72455L5.26809 12.5929L4.99576 13.6924L6.07113 13.421L13.8654 5.55413C13.9187 5.50032 13.9613 5.43604 13.9906 5.36479C14.0198 5.29352 14.035 5.21689 14.035 5.13934C14.035 5.06178 14.0198 4.98515 13.9906 4.91389C13.9613 4.84264 13.9187 4.77836 13.8654 4.72455C13.8121 4.67075 13.7492 4.62846 13.6805 4.59975C13.6118 4.57104 13.5385 4.55635 13.4646 4.55635ZM11.9582 3.62916C12.3564 3.22716 12.8982 3 13.4646 3C13.7449 3 14.0222 3.05573 14.2808 3.16383C14.5394 3.27192 14.7738 3.43016 14.971 3.62916C15.1681 3.82813 15.3241 4.06397 15.4304 4.323C15.5367 4.58202 15.5913 4.85939 15.5913 5.13934C15.5913 5.41928 15.5367 5.69665 15.4304 5.95568C15.3241 6.21471 15.1681 6.45054 14.971 6.64952L7.02431 14.6702C6.92459 14.7709 6.79928 14.8424 6.6619 14.8771L4.11897 15.5187C3.85393 15.5856 3.57324 15.5085 3.37953 15.3157C3.18583 15.1228 3.10751 14.8424 3.17323 14.5771L3.80896 12.0105C3.84272 11.8742 3.91271 11.7496 4.01151 11.6499L11.9582 3.62916Z" fill="#888888"/>
</svg>
