<svg width="20" height="20" viewBox="0 0 20 20" fill="none" xmlns="http://www.w3.org/2000/svg">
<path d="M19.8729 9.61096C19.6942 9.36655 15.4371 3.62634 9.9999 3.62634C4.56274 3.62634 0.305391 9.36655 0.126914 9.61073C-0.0423048 9.84261 -0.0423048 10.1571 0.126914 10.389C0.305391 10.6334 4.56274 16.3736 9.9999 16.3736C15.4371 16.3736 19.6942 10.6333 19.8729 10.3892C20.0423 10.1573 20.0423 9.84261 19.8729 9.61096ZM9.9999 15.0549C5.99486 15.0549 2.52606 11.245 1.49922 9.99952C2.52473 8.75292 5.98626 4.94502 9.9999 4.94502C14.0048 4.94502 17.4733 8.75424 18.5006 10.0004C17.4751 11.247 14.0135 15.0549 9.9999 15.0549Z" fill="#757575"/>
<path d="M10 6.04395C7.81868 6.04395 6.04395 7.81868 6.04395 10C6.04395 12.1813 7.81868 13.9561 10 13.9561C12.1813 13.9561 13.9561 12.1813 13.9561 10C13.9561 7.81868 12.1813 6.04395 10 6.04395ZM10 12.6374C8.54571 12.6374 7.36266 11.4543 7.36266 10C7.36266 8.54575 8.54575 7.36266 10 7.36266C11.4543 7.36266 12.6374 8.54575 12.6374 10C12.6374 11.4543 11.4543 12.6374 10 12.6374Z" fill="#757575"/>
</svg>
