<svg width="19" height="18" viewBox="0 0 19 18" fill="none" xmlns="http://www.w3.org/2000/svg">
<g clip-path="url(#clip0_282_56246)">
<path fill-rule="evenodd" clip-rule="evenodd" d="M11.4174 16.8048C11.4174 16.1446 10.8849 15.6096 10.2285 15.6096H8.77229C8.45686 15.6096 8.15441 15.7357 7.93139 15.9599C7.70836 16.1841 7.5833 16.4881 7.5833 16.8052C7.5833 17.4655 8.11582 18.0004 8.77229 18.0004H10.2285C10.8853 18.0004 11.4174 17.4651 11.4174 16.8052V16.8048ZM2.50006 13.7229C2.69859 13.7382 2.93906 13.7468 3.18027 13.7326C3.30867 14.388 3.62818 14.996 4.10504 15.4754C4.73812 16.1117 5.59646 16.4691 6.49191 16.4691H6.94576C6.92572 16.5791 6.91533 16.6914 6.91533 16.8048C6.91533 16.9182 6.92572 17.0316 6.94539 17.1405H6.49191C5.41945 17.1405 4.39115 16.7123 3.63301 15.9502C3.02813 15.3422 2.63477 14.5611 2.50006 13.7229ZM2.16014 13.0082C1.63281 12.9186 1.14223 12.6668 0.758887 12.2815C0.273125 11.7932 0 11.1307 0 10.4403V8.8534C0 8.16293 0.273125 7.50043 0.758887 7.01214C1.24465 6.52385 1.90371 6.24931 2.59061 6.24931H2.76316C3.03926 2.75181 5.95012 0 9.50037 0C13.0506 0 15.9615 2.75181 16.2372 6.24931H16.4098C17.0967 6.24931 17.7557 6.52385 18.2415 7.01214C18.7272 7.50043 19.0004 8.16293 19.0004 8.8534V10.4403C19.0004 11.1311 18.7272 11.7932 18.2415 12.2815C17.7557 12.7698 17.0967 13.0443 16.4098 13.0443H15.6453C15.3284 13.0443 15.0712 12.7858 15.0712 12.4673V6.79318C15.0712 3.70042 12.5771 1.19331 9.50037 1.19331C6.42363 1.19331 3.92951 3.70079 3.92951 6.79355V12.4677C3.92951 12.6926 3.80148 12.8877 3.61445 12.9828C3.09975 13.1622 2.30152 13.0324 2.16014 13.0085V13.0082Z" fill="#888888"/>
</g>
<defs>
<clipPath id="clip0_282_56246">
<rect width="19" height="18" fill="white"/>
</clipPath>
</defs>
</svg>
