<svg width="18" height="18" viewBox="0 0 18 18" fill="none" xmlns="http://www.w3.org/2000/svg">
<g clip-path="url(#clip0_282_56237)">
<path d="M8.97012 16.4998H2.24262C1.82988 16.4998 1.4952 16.1637 1.4952 15.7499V2.25009C1.4952 1.83598 1.83023 1.50018 2.24262 1.50018H8.97012C9.38355 1.50018 9.71754 1.16508 9.71754 0.750265C9.71754 0.33545 9.38355 0 8.97012 0H2.24262C1.00617 0 0 1.00952 0 2.25009V15.7499C0 16.9905 1.00617 18 2.24262 18H8.97012C9.38355 18 9.71754 17.6649 9.71754 17.2501C9.71754 16.8353 9.38355 16.5002 8.97012 16.5002V16.4998Z" fill="#888888"/>
<path d="M17.7779 8.46572L13.2329 3.96589C12.94 3.67489 12.4657 3.67877 12.1757 3.9733C11.8857 4.26783 11.8885 4.74261 12.1831 5.03362L15.4312 8.24949H6.72789C6.31445 8.24949 5.98047 8.58459 5.98047 8.9994C5.98047 9.41422 6.31445 9.74931 6.72789 9.74931H15.4312L12.1831 12.9652C11.8885 13.2562 11.8864 13.731 12.1757 14.0259C12.3223 14.1744 12.515 14.2495 12.708 14.2495C12.901 14.2495 13.0877 14.1775 13.2329 14.0336L17.7779 9.53379C17.9199 9.3927 18.0007 9.20081 18.0007 8.99976C18.0007 8.7987 17.9209 8.60752 17.7779 8.46572Z" fill="#888888"/>
</g>
<defs>
<clipPath id="clip0_282_56237">
<rect width="18" height="18" fill="white"/>
</clipPath>
</defs>
</svg>
