<svg width="20" height="20" viewBox="0 0 20 20" fill="none" xmlns="http://www.w3.org/2000/svg">
<g clip-path="url(#clip0_567_5196)">
<path fill-rule="evenodd" clip-rule="evenodd" d="M4.04827 7.90657C3.65407 7.90657 3.33398 7.59393 3.33398 7.2089C3.33398 6.82387 3.65407 6.51123 4.04827 6.51123H8.81032C9.20452 6.51123 9.52461 6.82387 9.52461 7.2089C9.52461 7.59393 9.20452 7.90657 8.81032 7.90657H4.04827Z" fill="#005CBA"/>
<path fill-rule="evenodd" clip-rule="evenodd" d="M4.04827 15.349C3.65407 15.349 3.33398 15.0363 3.33398 14.6513C3.33398 14.2663 3.65407 13.9536 4.04827 13.9536H8.81032C9.20452 13.9536 9.52461 14.2663 9.52461 14.6513C9.52461 15.0363 9.20452 15.349 8.81032 15.349H4.04827Z" fill="#005CBA"/>
<path fill-rule="evenodd" clip-rule="evenodd" d="M4.04827 11.6278C3.65407 11.6278 3.33398 11.3151 3.33398 10.9301C3.33398 10.5451 3.65407 10.2324 4.04827 10.2324H10.7148C11.109 10.2324 11.4291 10.5451 11.4291 10.9301C11.4291 11.3151 11.109 11.6278 10.7148 11.6278H4.04827Z" fill="#005CBA"/>
<path fill-rule="evenodd" clip-rule="evenodd" d="M17.6187 9.53496C17.6187 9.91999 17.2987 10.2326 16.9045 10.2326C16.5103 10.2326 16.1902 9.91999 16.1902 9.53496V6.17394C16.1902 6.11551 16.1683 6.05969 16.1281 6.01653L11.8978 1.47165C11.8522 1.42325 11.7884 1.39534 11.7214 1.39534H2.61875C2.30268 1.39534 2.00045 1.5183 1.77679 1.73589C1.55402 1.95435 1.42812 2.24955 1.42812 2.55827V17.4417C1.42812 17.7505 1.55402 18.0457 1.77679 18.2641C2.00045 18.4817 2.30268 18.6047 2.61875 18.6047H10.2379C10.6321 18.6047 10.9522 18.9173 10.9522 19.3023C10.9522 19.6874 10.6321 20 10.2379 20H2.61875C1.92455 20 1.25759 19.7301 0.766518 19.2513C0.275893 18.7712 0 18.1202 0 17.4422V2.55827C0 1.88022 0.276339 1.22877 0.766518 0.749122C1.25759 0.269911 1.92411 0 2.61875 0H11.7214C12.1911 0 12.6384 0.193603 12.9549 0.532845L17.1853 5.07772C17.4643 5.37816 17.6187 5.76798 17.6187 6.1735V9.53452V9.53496Z" fill="#005CBA"/>
<path fill-rule="evenodd" clip-rule="evenodd" d="M11.4277 1.163C11.4277 0.777975 11.7478 0.465332 12.142 0.465332C12.5362 0.465332 12.8563 0.777975 12.8563 1.163V4.88376C12.8563 5.01196 12.963 5.11617 13.0943 5.11617H16.4277C16.8219 5.11617 17.142 5.42881 17.142 5.81384C17.142 6.19887 16.8219 6.51151 16.4277 6.51151H13.0943C12.1733 6.51151 11.4277 5.78201 11.4277 4.88376V1.163Z" fill="#005CBA"/>
<path fill-rule="evenodd" clip-rule="evenodd" d="M15.4768 11.1626C17.9741 11.1626 20.0004 13.1422 20.0004 15.581C20.0004 18.0198 17.9737 19.9995 15.4768 19.9995C12.9799 19.9995 10.9531 18.0198 10.9531 15.581C10.9531 13.1422 12.9799 11.1626 15.4768 11.1626ZM13.2576 16.0742L14.4004 17.1905C14.6795 17.463 15.1308 17.463 15.4098 17.1905L17.6955 14.9579C17.9746 14.6863 17.9746 14.2437 17.6955 13.972C17.4174 13.6995 16.9643 13.6995 16.6862 13.972L14.9054 15.7105L14.2674 15.0883C13.9893 14.8158 13.5362 14.8158 13.258 15.0883C12.979 15.36 12.979 15.8025 13.258 16.0742H13.2576Z" fill="#005CBA"/>
</g>
<defs>
<clipPath id="clip0_567_5196">
<rect width="20" height="20" fill="white"/>
</clipPath>
</defs>
</svg>
