<svg width="20" height="20" viewBox="0 0 20 20" fill="none" xmlns="http://www.w3.org/2000/svg">
<path d="M10 0C4.47734 0 0 4.47734 0 10C0 15.5227 4.47734 20 10 20C15.5227 20 20 15.5227 20 10C20 4.47734 15.5227 0 10 0ZM10 3.04688C11.9824 3.04688 13.5895 4.65391 13.5895 6.63633C13.5895 8.61875 11.9824 10.2258 10 10.2258C8.01758 10.2258 6.41055 8.61875 6.41055 6.63633C6.41055 4.65391 8.01758 3.04688 10 3.04688ZM16.0008 15.0031C13.2379 18.3172 8.31172 18.7641 4.99727 16.0012C4.63516 15.6992 4.30117 15.3652 3.99922 15.0031C3.79805 14.7621 3.72383 14.4398 3.79883 14.1352C4.13906 12.7543 4.93047 11.5266 6.04727 10.6461C6.38984 10.3777 6.86914 10.3707 7.21914 10.6293C7.96133 11.1812 8.93437 11.5156 9.99844 11.5156C11.0625 11.5156 12.0352 11.1812 12.7777 10.6293C13.1277 10.3707 13.607 10.3777 13.9496 10.6461C15.0676 11.5262 15.8602 12.7539 16.2012 14.1352C16.2762 14.4398 16.202 14.7621 16.0008 15.0031Z" fill="#005CBA"/>
</svg>
