<svg width="18" height="18" viewBox="0 0 18 18" fill="none" xmlns="http://www.w3.org/2000/svg">
<path d="M15.364 2.63605C13.6641 0.936176 11.404 0 9 0C6.59602 0 4.33593 0.936176 2.63602 2.63605C0.936176 4.33593 0 6.59602 0 9C0 11.404 0.936176 13.6641 2.63602 15.3639C4.33593 17.0638 6.59602 18 9 18C11.404 18 13.6641 17.0638 15.364 15.3639C17.0638 13.6641 18 11.404 18 9C18 6.59602 17.0638 4.33593 15.364 2.63605ZM9 16.9453C6.64914 16.9453 4.53386 15.9187 3.07786 14.2906C3.9805 11.8976 6.29114 10.1953 9 10.1953C7.25252 10.1953 5.83594 8.77873 5.83594 7.03125C5.83594 5.28377 7.25252 3.86719 9 3.86719C10.7475 3.86719 12.1641 5.28377 12.1641 7.03125C12.1641 8.77873 10.7475 10.1953 9 10.1953C11.7089 10.1953 14.0195 11.8976 14.9221 14.2906C13.4661 15.9187 11.3509 16.9453 9 16.9453Z" fill="#888888"/>
</svg>
