<svg width="20" height="20" viewBox="0 0 20 20" fill="none" xmlns="http://www.w3.org/2000/svg">
<g clip-path="url(#clip0_285_3047)">
<path d="M19.2931 9.58381C18.9321 9.22284 18.4849 9.00023 18.018 8.91568L17.9653 8.86302L19.9758 6.85265L17.9653 4.84229L18.018 4.78963C18.4851 4.70508 18.9321 4.48246 19.2931 4.1215C20.236 3.17866 20.236 1.65025 19.2931 0.707413C18.3502 -0.235425 16.8217 -0.235425 15.8789 0.707413C15.5179 1.06838 15.2952 1.5156 15.2107 1.98246L15.158 2.03513L13.1476 0.0244819L11.1371 2.03484L11.0845 1.98218C10.9999 1.51503 10.7773 1.06809 10.4163 0.707128C9.47343 -0.235709 7.94496 -0.235709 7.00208 0.707128C6.0592 1.64997 6.0592 3.17838 7.00208 4.12121C7.36306 4.48218 7.8103 4.70479 8.27719 4.78934L8.32985 4.84201L6.68494 6.48685L8.08246 7.88431C8.22053 7.62326 8.39789 7.38271 8.61112 7.16978C9.17451 6.60641 9.92381 6.29583 10.7209 6.29583C11.518 6.29583 12.2671 6.60613 12.8307 7.16978C13.3941 7.73315 13.7047 8.48241 13.7047 9.27921C13.7047 10.076 13.3944 10.8253 12.8307 11.3889C12.6178 11.6019 12.3772 11.7795 12.1162 11.9176L13.5137 13.315L15.1586 11.6702L15.2113 11.7228C15.2958 12.19 15.5184 12.6369 15.8794 12.9979C16.8223 13.9407 18.3508 13.9407 19.2937 12.9979C20.2365 12.0551 20.2365 10.5266 19.2937 9.58381H19.2931Z" fill="#005CBA"/>
<path d="M11.0513 16.3396L10.8759 16.308L10.2946 15.727L12.3053 13.7163L10.8978 12.3089L10.2949 11.706L10.8759 11.1247L11.0513 11.0931C11.4214 11.0262 11.7581 10.8497 12.0252 10.5826C12.3736 10.2342 12.5655 9.77104 12.5655 9.27828C12.5655 8.78551 12.3736 8.32234 12.0252 7.9739C11.6767 7.62546 11.2135 7.43359 10.7208 7.43359C10.228 7.43359 9.76478 7.62546 9.41632 7.9739C9.14929 8.24093 8.97278 8.5777 8.90588 8.94777L8.87428 9.12313L8.29324 9.70415L7.68999 9.10092L6.28251 7.6935L4.27206 9.70386L3.69073 9.12284L3.65913 8.94749C3.59223 8.57741 3.41573 8.24064 3.14869 7.97362C2.42958 7.25425 1.25895 7.25453 0.539834 7.97362C-0.179565 8.69299 -0.179565 9.86328 0.539834 10.5824C0.806869 10.8494 1.14365 11.0259 1.51374 11.0928L1.68911 11.1244L2.27015 11.7054L0.259419 13.7163L2.26987 15.7267L1.68882 16.3077L1.51346 16.3393C1.14337 16.4062 0.806585 16.5827 0.53955 16.8497C-0.17985 17.5691 -0.17985 18.7394 0.53955 19.4585C1.25895 20.1776 2.42929 20.1778 3.14841 19.4585C3.41544 19.1915 3.59195 18.8547 3.65885 18.4846L3.69045 18.3092L4.27177 17.7285L6.28222 19.7389L8.29267 17.7285L8.87371 18.3095L8.90531 18.4849C8.97221 18.855 9.14872 19.1917 9.41575 19.4588C9.76421 19.8072 10.2274 19.9991 10.7202 19.9991C11.213 19.9991 11.6762 19.8072 12.0246 19.4588C12.7437 18.7397 12.7437 17.5691 12.0246 16.85C11.7576 16.583 11.4208 16.4065 11.0507 16.3396H11.0513Z" fill="#005CBA"/>
</g>
<defs>
<clipPath id="clip0_285_3047">
<rect width="20" height="20" fill="white"/>
</clipPath>
</defs>
</svg>
