<svg width="20" height="20" viewBox="0 0 20 20" fill="none" xmlns="http://www.w3.org/2000/svg">
<path d="M18 0C16.8973 0 16 0.893363 16 1.99115C16 2.43628 16.1529 2.84381 16.4018 3.17611L13.14 6.7C12.9876 6.66283 12.8307 6.63761 12.6667 6.63761C12.2573 6.63761 11.8769 6.7615 11.5596 6.97257L9.23378 5.23628C9.29289 5.04867 9.33333 4.8531 9.33333 4.64646C9.33333 3.54867 8.436 2.65531 7.33333 2.65531C6.23067 2.65531 5.33333 3.54867 5.33333 4.64646C5.33333 4.8531 5.37422 5.04867 5.43289 5.23628L3.10711 6.97257C2.78978 6.7615 2.40933 6.63761 2 6.63761C0.897333 6.63761 0 7.53097 0 8.62876C0 9.72655 0.897333 10.6199 2 10.6199C3.10267 10.6199 4 9.72655 4 8.62876C4 8.42212 3.95911 8.22655 3.9 8.03894L6.22578 6.30265C6.54311 6.51372 6.92356 6.63761 7.33289 6.63761C7.74222 6.63761 8.12267 6.51372 8.44 6.30265L10.7658 8.03894C10.7067 8.22655 10.6662 8.42212 10.6662 8.62876C10.6662 9.72655 11.5636 10.6199 12.6662 10.6199C13.7689 10.6199 14.6662 9.72655 14.6662 8.62876C14.6662 8.18319 14.5133 7.77611 14.2644 7.44381L17.5262 3.91991C17.6787 3.95708 17.8356 3.9823 17.9996 3.9823C19.1022 3.9823 19.9996 3.08894 19.9996 1.99115C19.9996 0.893363 19.1027 0 18 0Z" fill="#005CBA"/>
<path d="M8.66732 10.6191H6.00065C5.63221 10.6191 5.33398 10.916 5.33398 11.2829V19.9997H9.33398V11.2829C9.33398 10.916 9.03576 10.6191 8.66732 10.6191Z" fill="#005CBA"/>
<path d="M13.9993 13.2744H11.3327C10.9642 13.2744 10.666 13.5713 10.666 13.9381V20.0001H14.666V13.9381C14.666 13.5713 14.3678 13.2744 13.9993 13.2744Z" fill="#005CBA"/>
<path d="M19.3333 7.96484H16.6667C16.2982 7.96484 16 8.26175 16 8.62856V20.0002H20V8.62856C20 8.26175 19.7018 7.96484 19.3333 7.96484Z" fill="#005CBA"/>
<path d="M3.33333 14.6016H0.666667C0.298222 14.6016 0 14.8985 0 15.2653V19.9998H4V15.2653C4 14.8985 3.70178 14.6016 3.33333 14.6016Z" fill="#005CBA"/>
</svg>
