<svg width="20" height="20" viewBox="0 0 20 20" fill="none" xmlns="http://www.w3.org/2000/svg">
<g clip-path="url(#clip0_282_56478)">
<path d="M15.7031 16.666C15.0488 16.666 14.4875 17.0723 14.2551 17.6464H12.8906V18.8229H14.2551C14.4875 19.397 15.0488 19.8033 15.7031 19.8033C16.5648 19.8033 17.2656 19.0997 17.2656 18.2346C17.2656 17.3695 16.5648 16.666 15.7031 16.666Z" fill="#005CBA"/>
<path d="M18.4375 13.3327C18.1805 13.3327 17.9383 13.3955 17.7242 13.5064L16.2734 12.2927C16.168 12.2045 16.0355 12.1562 15.8984 12.1562H12.8906V13.3327H15.6863L16.9586 14.397C16.9047 14.5555 16.8754 14.7249 16.8754 14.9013C16.8754 15.7664 17.5762 16.47 18.4379 16.47C19.2996 16.47 20.0004 15.7664 20.0004 14.9013C20.0004 14.0363 19.2996 13.3327 18.4379 13.3327H18.4375Z" fill="#005CBA"/>
<path d="M18.4375 8.43164C17.7832 8.43164 17.2219 8.83792 16.9895 9.41203H12.8906V10.5885H16.9895C17.2219 11.1626 17.7832 11.5689 18.4375 11.5689C19.2992 11.5689 20 10.8654 20 10.0003C20 9.13517 19.2992 8.43164 18.4375 8.43164Z" fill="#005CBA"/>
<path d="M16.2738 7.70655L17.7246 6.49283C17.9387 6.60342 18.1809 6.66655 18.4379 6.66655C19.2996 6.66655 20.0004 5.96302 20.0004 5.09792C20.0004 4.23283 19.2996 3.5293 18.4379 3.5293C17.5762 3.5293 16.8754 4.23283 16.8754 5.09792C16.8754 5.27439 16.9051 5.44381 16.9586 5.60224L15.6863 6.66655H12.8906V7.84302H15.8984C16.0355 7.84302 16.1684 7.79479 16.2734 7.70655H16.2738Z" fill="#005CBA"/>
<path d="M15.7031 3.33257C16.5648 3.33257 17.2656 2.62904 17.2656 1.76394C17.2656 0.898842 16.5648 0.195312 15.7031 0.195312C15.0488 0.195312 14.4875 0.601587 14.2551 1.1757H12.8906V2.35218H14.2551C14.4875 2.92629 15.0488 3.33257 15.7031 3.33257Z" fill="#005CBA"/>
<path d="M5.85938 10.0005C5.85938 12.271 7.69922 14.1181 9.96094 14.1181C10.5898 14.1181 11.1855 13.9754 11.7188 13.7205V6.28085C11.1855 6.02595 10.5898 5.88281 9.96094 5.88281C7.69922 5.88281 5.85938 7.72987 5.85938 10.0005Z" fill="#005CBA"/>
<path d="M11.1328 0H8.78906C8.46562 0 8.20312 0.263529 8.20312 0.588235V1.35412C7.10352 1.57882 6.05156 2.01647 5.11406 2.63882L4.57461 2.09725C4.3457 1.86745 3.975 1.86745 3.74609 2.09725L2.08867 3.76118C1.85977 3.99098 1.85977 4.36314 2.08867 4.59294L2.62812 5.13451C2.0082 6.07529 1.57227 7.13176 1.34844 8.23569H0.585938C0.2625 8.23569 0 8.49922 0 8.82392V11.1769C0 11.5016 0.2625 11.7651 0.585938 11.7651H1.34844C1.57227 12.869 2.0082 13.9251 2.62812 14.8663L2.08867 15.4078C1.97891 15.518 1.91719 15.6678 1.91719 15.8239C1.91719 15.98 1.97891 16.1294 2.08867 16.24L3.74609 17.9039C3.975 18.1337 4.3457 18.1337 4.57461 17.9039L5.11406 17.3624C6.05117 17.9847 7.10352 18.422 8.20312 18.6471V19.4125C8.20312 19.7373 8.46562 20.0008 8.78906 20.0008H11.1328C11.4563 20.0008 11.7188 19.7373 11.7188 19.4125V14.9922C11.1687 15.1878 10.577 15.2949 9.96094 15.2949C7.05312 15.2949 4.6875 12.92 4.6875 10.0008C4.6875 7.08157 7.05312 4.70667 9.96094 4.70667C10.577 4.70667 11.1687 4.81373 11.7188 5.00941V0.588235C11.7188 0.263529 11.4563 0 11.1328 0Z" fill="#005CBA"/>
</g>
<defs>
<clipPath id="clip0_282_56478">
<rect width="20" height="20" fill="white"/>
</clipPath>
</defs>
</svg>
