<svg width="18" height="18" viewBox="0 0 18 18" fill="none" xmlns="http://www.w3.org/2000/svg">
<g clip-path="url(#clip0_285_6658)">
<path d="M0.107013 2.73561C0.20299 2.33623 0.700802 2.19455 0.992599 2.48635L2.93533 4.43014H4.42772V2.93775L2.48744 0.998535C2.1967 0.707793 2.33697 0.210683 2.73424 0.113301C3.65182 -0.111348 5.14033 -0.0779494 6.29135 1.07271C7.29822 2.07959 7.62166 3.58252 7.14846 4.91353L13.0853 10.8504C14.416 10.3772 15.9192 10.7006 16.9261 11.7075C18.0476 12.829 18.1137 14.3329 17.8897 15.2656C17.7938 15.665 17.296 15.8071 17.0042 15.5149L15.0614 13.5711H13.569V15.0635L15.5086 17.002C15.7994 17.2928 15.6591 17.7899 15.2615 17.8872C14.3446 18.1115 12.8564 18.0792 11.7051 16.9282C10.6982 15.9213 10.3747 14.4184 10.848 13.0874L4.91111 7.15053C3.58045 7.62373 2.07752 7.30029 1.07029 6.29342C-0.0508382 5.17229 -0.116932 3.6683 0.107013 2.73561Z" fill="#005CBA"/>
<path d="M8.99923 12.7294L4.49993 17.2283C3.59958 18.1287 2.20458 18.2408 1.18118 17.5637L5.24594 13.4993C5.45161 13.2933 5.45161 12.9593 5.24594 12.7533C5.03993 12.5476 4.70594 12.5476 4.49993 12.7533L0.435867 16.818C-0.241243 15.795 -0.129446 14.4 0.771257 13.4993L5.2702 9L8.99958 12.7294H8.99923Z" fill="#005CBA"/>
<path d="M17.945 1.50888L16.4533 4.49224C16.3759 4.64728 16.2276 4.75415 16.056 4.77876L13.62 5.12646L11.2379 7.50865L10.4922 6.76298L12.874 4.38115L13.2221 1.94482C13.2467 1.77326 13.3536 1.6249 13.5086 1.54755L16.4916 0.0555217C16.6945 -0.0457283 16.9398 -0.00600173 17.1002 0.154311L17.8462 0.900326C18.0065 1.06064 18.0462 1.30603 17.945 1.50888Z" fill="#005CBA"/>
</g>
<defs>
<clipPath id="clip0_285_6658">
<rect width="18" height="18" fill="white"/>
</clipPath>
</defs>
</svg>
