<svg width="20" height="20" viewBox="0 0 20 20" fill="none" xmlns="http://www.w3.org/2000/svg">
<path d="M9.8035 11.9699C9.4904 11.5089 9.5474 10.889 9.93999 10.4938L10.5465 9.88436C10.9395 9.48962 11.5561 9.4319 12.0145 9.74713L12.6359 10.1746C12.6428 10.1431 12.6528 10.112 12.6652 10.0817C12.7479 9.90737 13.1385 9.03271 13.2063 8.92091C13.4155 8.57702 13.7876 8.36754 14.1882 8.36714H15.0457C15.1075 8.36754 15.1693 8.37319 15.2303 8.38369C15.2383 8.34332 15.2424 8.30175 15.2428 8.26058V7.06545C15.2428 6.75223 15.0208 6.48302 14.7145 6.4253L13.3372 6.16536C13.1313 6.12823 12.9603 5.98414 12.8884 5.78636C12.8234 5.6019 12.7491 5.42108 12.6652 5.24429C12.5777 5.05338 12.5974 4.83017 12.717 4.65742L13.5078 3.49498C13.6836 3.23626 13.6515 2.88834 13.4311 2.66675L12.5906 1.82196C12.3702 1.60037 12.0242 1.56808 11.7669 1.74487L10.6108 2.54001C10.4394 2.66029 10.217 2.68007 10.0271 2.59167C9.85127 2.50772 9.67103 2.43305 9.48759 2.36766C9.29129 2.29501 9.14758 2.12306 9.11105 1.9156L8.85254 0.53117C8.79473 0.223204 8.52739 0 8.21548 0H7.02688C6.71537 0 6.44803 0.223204 6.39022 0.53117L6.13171 1.91601C6.09478 2.12306 5.95147 2.29541 5.75477 2.36806C5.57132 2.43305 5.39149 2.50772 5.21566 2.59208C5.02579 2.68007 4.8034 2.66069 4.6316 2.54041L3.4755 1.74527C3.21819 1.56848 2.87217 1.60118 2.65179 1.82236L1.81161 2.66755C1.59163 2.88914 1.55912 3.23707 1.73494 3.49579L2.52574 4.65823C2.64536 4.83098 2.66463 5.05419 2.57712 5.2451C2.49363 5.42189 2.41896 5.60271 2.35433 5.78717C2.28208 5.98454 2.11147 6.12904 1.90514 6.16577L0.52827 6.4257C0.221986 6.48342 0 6.75223 0 7.06585V8.26098C0 8.5742 0.221986 8.84341 0.52827 8.90113L1.90514 9.16066C2.11147 9.1978 2.28248 9.34229 2.35474 9.54007C2.41977 9.72453 2.49403 9.90535 2.57752 10.0821C2.66503 10.2731 2.64577 10.4967 2.52614 10.669L1.73534 11.8314C1.55952 12.0902 1.59204 12.4381 1.81201 12.6597L2.65219 13.5049C2.87257 13.7265 3.21859 13.7588 3.4759 13.582L4.632 12.7868C4.80381 12.6669 5.02579 12.6472 5.21606 12.7352C5.39189 12.8195 5.57172 12.8942 5.75517 12.9592C5.95187 13.0318 6.09518 13.2038 6.13211 13.4112L6.39062 14.7961C6.44843 15.104 6.71577 15.3272 7.02728 15.3272H8.21588C8.30098 15.3268 8.38528 15.3095 8.46356 15.276C8.44309 15.192 8.43265 15.1056 8.43145 15.0193V14.1571C8.43145 13.7624 8.63095 13.3947 8.96092 13.1812C9.39165 12.985 9.83522 12.8191 10.2888 12.6847L9.8031 11.9711L9.8035 11.9699ZM7.62138 10.1197C6.2722 10.1197 5.17833 9.0198 5.17833 7.66322C5.17833 6.30663 6.2722 5.20676 7.62138 5.20676C8.97056 5.20676 10.0644 6.30663 10.0644 7.66322C10.0644 9.0198 8.97056 10.1197 7.62138 10.1197Z" fill="#005CBA"/>
<path d="M19.7139 13.8088L18.7204 13.6215C18.5309 13.5872 18.3739 13.454 18.3081 13.2724C18.2627 13.1432 18.2105 13.0165 18.1519 12.8926C18.0709 12.7174 18.0885 12.512 18.1981 12.3533L18.7685 11.5146C18.8641 11.3742 18.8464 11.1853 18.7268 11.065L18.1202 10.4555C18.0006 10.3352 17.8127 10.3179 17.6734 10.4135L16.8393 10.9871C16.6815 11.0973 16.4772 11.115 16.303 11.0335C16.1798 10.9746 16.0537 10.9221 15.9253 10.8765C15.7442 10.8103 15.6122 10.6525 15.578 10.462L15.3918 9.46299C15.3605 9.29589 15.2155 9.1748 15.0461 9.1748H14.1887C14.0197 9.1748 13.8744 9.29589 13.8431 9.46299L13.6568 10.462C13.6227 10.6525 13.4906 10.8103 13.3096 10.8765C13.1811 10.9221 13.0551 10.9746 12.9319 11.0335C12.7576 11.115 12.5533 11.0977 12.3956 10.9871L11.5614 10.4135C11.4217 10.3175 11.2339 10.3352 11.1142 10.4555L10.5081 11.065C10.3885 11.1853 10.3712 11.3742 10.4663 11.5146L11.0368 12.3533C11.1463 12.512 11.164 12.7174 11.0829 12.8926C11.0243 13.0165 10.9721 13.1432 10.9268 13.2724C10.8609 13.4544 10.704 13.5872 10.5145 13.6215L9.52099 13.8088C9.3548 13.8403 9.23438 13.986 9.23438 14.1563V15.0185C9.23438 15.1884 9.3548 15.3345 9.52099 15.366L10.5145 15.5533C10.704 15.5876 10.8609 15.7208 10.9268 15.9024C10.9721 16.0316 11.0243 16.1583 11.0829 16.2822C11.164 16.4574 11.1467 16.6628 11.0368 16.8215L10.4663 17.6602C10.3708 17.8007 10.3885 17.9896 10.5081 18.1098L11.1146 18.7197C11.2343 18.84 11.4221 18.8574 11.5618 18.7617L12.396 18.1881C12.5537 18.078 12.758 18.0602 12.9323 18.1417C13.0555 18.2007 13.1815 18.2531 13.31 18.2987C13.491 18.3649 13.6231 18.5227 13.6572 18.7133L13.8435 19.7122C13.8748 19.8793 14.0197 20.0004 14.1891 20.0004H15.0465C15.2155 20.0004 15.3609 19.8793 15.3922 19.7122L15.5784 18.7129C15.6126 18.5223 15.7446 18.3645 15.9257 18.2983C16.0541 18.2527 16.1802 18.2003 16.3034 18.1413C16.4776 18.0598 16.6819 18.0776 16.8397 18.1877L17.6739 18.7617C17.8135 18.8578 18.0014 18.84 18.121 18.7197L18.7276 18.1098C18.8472 17.9896 18.8645 17.8007 18.7693 17.6606L18.1989 16.8219C18.0893 16.6633 18.0717 16.4578 18.1531 16.2826C18.2118 16.1587 18.2639 16.032 18.3089 15.9028C18.3747 15.7208 18.5317 15.588 18.7208 15.5537L19.7143 15.3664C19.8805 15.3349 20.0009 15.1892 20.0009 15.0189V14.1567C20.0009 13.9864 19.8805 13.8407 19.7143 13.8092L19.7139 13.8088ZM14.6178 16.5934C13.5159 16.5934 12.6228 15.6954 12.6228 14.5874C12.6228 13.4795 13.5159 12.5814 14.6178 12.5814C15.7197 12.5814 16.6129 13.4795 16.6129 14.5874C16.6129 15.6954 15.7197 16.5934 14.6178 16.5934Z" fill="#005CBA"/>
</svg>
