<svg width="10" height="6" viewBox="0 0 10 6" fill="none" xmlns="http://www.w3.org/2000/svg">
<path d="M9.80912 4.71077L5.45831 0.371213C5.20555 0.11845 4.79365 0.11845 4.54049 0.371213L0.190074 4.71037C0.0675105 4.83334 0 4.99609 0 5.16928C0 5.34248 0.0675105 5.50523 0.190074 5.62699C0.312638 5.74955 0.475387 5.81706 0.648985 5.81706C0.822584 5.81706 0.985332 5.74955 1.10749 5.62739L4.9998 1.74594L8.8917 5.62779C9.14487 5.88015 9.55636 5.88015 9.80993 5.62779C9.93249 5.50523 10 5.34208 10 5.16888C10 4.99569 9.93249 4.83294 9.80993 4.71077H9.80912Z" fill="#444444"/>
</svg>
