<svg width="180" height="50" viewBox="0 0 180 50" fill="none" xmlns="http://www.w3.org/2000/svg">
<g clip-path="url(#clip0_156_2816)">
<path d="M41.3039 14.7167C38.7554 12.2448 35.5737 12.1102 32.4757 12.1102H9.52369L5.16857 28.8359H12.7892L15.1422 19.7919H33.2362C36.1231 19.7919 35.2726 22.08 35.2726 22.08C35.2726 22.08 34.8628 24.3615 33.7857 27.8248C32.8513 30.8351 28.8191 30.5627 27.9282 30.5627C27.0373 30.5627 17.6534 30.6053 11.2465 30.5627C4.83643 30.5167 3.60719 36.3075 3.17882 37.7454C2.75665 39.1832 -0.00292969 50 -0.00292969 50H7.76364C7.76364 50 9.7596 42.1443 10.2687 39.9875C10.7778 37.834 11.8394 38.1492 12.5192 38.1492H27.1211C30.0079 38.1492 32.3391 38.1492 35.3967 36.7113C39.9878 34.5512 41.0866 28.7637 41.8503 25.7567C42.6139 22.7464 43.8462 17.1821 41.3008 14.7134" fill="#003C7A"/>
<path d="M79.6336 14.7134C77.0851 12.2448 73.9033 12.1102 70.8054 12.1102H59.3418C57.4327 12.1102 53.4843 12.4253 51.4479 13.5053C46.9004 15.9083 45.6742 21.0886 45.0782 23.5145C44.4853 25.9405 42.9985 31.3702 44.5288 34.2459C46.6862 38.2969 52.0843 38.1065 52.8076 38.1065C53.5308 38.1065 65.46 38.1492 65.46 38.1492C68.3469 38.1492 70.6781 38.1492 73.7357 36.7146C78.3267 34.5545 79.4256 28.767 80.1892 25.76C80.9528 22.7529 82.1852 17.1886 79.6398 14.7167M73.6084 22.08C73.6084 22.08 73.1987 24.3582 72.1215 27.8248C71.1872 30.8319 67.1549 30.5627 66.264 30.5627H54.1641C52.8914 30.5627 50.7712 30.6086 51.4914 27.7821C52.2116 24.9524 52.7393 22.9696 53.0621 22.034C53.5277 20.6881 54.5893 19.7 58.1125 19.7C61.6357 19.7 71.5721 19.7886 71.5721 19.7886C74.459 19.7886 73.6084 22.0767 73.6084 22.0767" fill="#003C7A"/>
<path d="M87.3756 38.1492H80.1367C80.1367 38.1492 83.5885 23.4784 84.3149 21.1542C85.0444 18.8333 86.3171 16.171 88.5583 14.3523C91.0757 12.3071 95.3657 12.074 97.5696 12.074C99.7735 12.074 104.16 11.8541 107.192 14.001C107.192 14.001 109.372 12.0412 116.607 12.1102C123.846 12.1758 125.165 13.5086 126.426 15.4028C127.683 17.2969 127.571 20.1956 127.23 22.1817C126.885 24.1678 123.374 38.1984 123.374 38.1984H115.946C115.946 38.1984 119.323 25.3726 119.631 23.3964C119.935 21.4168 120.525 20.0545 118.758 19.9396C116.992 19.8214 115.558 19.805 114.841 19.7951C114.121 19.7919 110.467 19.1911 109.449 22.487C108.375 25.9602 105.349 38.1459 105.349 38.1459L97.9793 38.1951C97.9793 38.1951 101.298 24.5552 101.785 22.7825C102.272 21.0098 102.158 19.956 100.435 19.8871C98.7088 19.8181 96.3217 19.8181 95.8437 19.8181C94.8411 19.8181 92.1467 19.6737 90.9329 23.9741C89.4523 29.2266 87.3818 38.1459 87.3818 38.1459" fill="#A81920"/>
<path d="M134.382 38.1295H126.565C126.565 38.1295 130.644 21.082 131.349 18.6298C132.06 16.1775 133.823 11.8804 140.879 12.1791V19.4012C140.879 19.4012 138.805 19.2371 138.461 20.7833C138.113 22.3229 134.379 38.1295 134.379 38.1295" fill="#003C7A"/>
<path d="M143.476 4.78629C143.476 7.43221 141.449 9.57258 138.951 9.57258C136.452 9.57258 134.425 7.42893 134.425 4.78629C134.425 2.14365 136.452 0 138.951 0C141.449 0 143.476 2.14365 143.476 4.78629Z" fill="#003C7A"/>
<path d="M156.908 12.317C153.792 12.317 151.631 12.445 149.371 13.1705C145.472 14.4245 143.995 17.0868 142.998 18.9121C142.005 20.7307 140.316 27.3652 140.084 28.7998C139.767 30.7432 139.485 33.5697 141.142 35.605C143.38 38.3494 146.779 38.1262 148.48 38.1262H161.304L166.605 34.2L165.696 38.1262H173.369L179.997 12.317H156.905H156.908ZM167.605 30.5561C167.605 30.5561 152.658 30.4248 149.697 30.4839C147.307 30.5265 147.428 28.8589 147.642 28.0316C147.859 27.2044 148.521 24.391 149.166 22.3491C149.899 20.0315 151.845 19.8247 153.708 19.8247H170.256L167.605 30.5561Z" fill="#003C7A"/>
</g>
<defs>
<clipPath id="clip0_156_2816">
<rect width="180" height="50" fill="white"/>
</clipPath>
</defs>
</svg>
