<svg width="126" height="33" viewBox="0 0 126 33" fill="none" xmlns="http://www.w3.org/2000/svg">
<g clip-path="url(#clip0_195_65)">
<path d="M28.9128 9.71304C27.1289 8.08157 24.9017 7.99274 22.7331 7.99274H6.66668L3.6181 19.0317H8.95257L10.5996 13.0627H23.2655C25.2863 13.0627 24.6909 14.5728 24.6909 14.5728C24.6909 14.5728 24.4041 16.0786 23.6501 18.3644C22.996 20.3512 20.1734 20.1714 19.5498 20.1714C18.9262 20.1714 12.3575 20.1996 7.87264 20.1714C3.3856 20.1411 2.52513 23.963 2.22527 24.912C1.92976 25.861 -0.00195312 33 -0.00195312 33H5.43465C5.43465 33 6.83182 27.8153 7.18818 26.3918C7.54453 24.9705 8.28766 25.1785 8.76353 25.1785H18.9849C21.0057 25.1785 22.6375 25.1785 24.7778 24.2295C27.9915 22.8038 28.7607 18.9841 29.2953 16.9994C29.8298 15.0126 30.6924 11.3402 28.9107 9.71088" fill="white"/>
<path d="M55.7438 9.71088C53.9598 8.08157 51.7326 7.99274 49.5641 7.99274H41.5395C40.2032 7.99274 37.4393 8.20073 36.0138 8.91356C32.8305 10.4995 31.9723 13.9185 31.5551 15.5196C31.14 17.1208 30.0992 20.7044 31.1705 22.6023C32.6806 25.276 36.4593 25.1503 36.9656 25.1503C37.4719 25.1503 45.8223 25.1785 45.8223 25.1785C47.8431 25.1785 49.475 25.1785 51.6153 24.2317C54.829 22.806 55.5982 18.9862 56.1327 17.0016C56.6673 15.017 57.5299 11.3445 55.7481 9.71304M51.5262 14.5728C51.5262 14.5728 51.2394 16.0764 50.4854 18.3644C49.8313 20.3491 47.0087 20.1714 46.3851 20.1714H37.9151C37.0242 20.1714 35.5402 20.2017 36.0443 18.3362C36.5484 16.4686 36.9178 15.16 37.1438 14.5425C37.4697 13.6542 38.2128 13.002 40.6791 13.002C43.1453 13.002 50.1008 13.0605 50.1008 13.0605C52.1216 13.0605 51.5262 14.5706 51.5262 14.5706" fill="white"/>
<path d="M61.1629 25.1784H56.0957C56.0957 25.1784 58.512 15.4957 59.0204 13.9618C59.5311 12.43 60.4219 10.6728 61.9908 9.4725C63.753 8.12269 66.756 7.96886 68.2987 7.96886C69.8415 7.96886 72.9118 7.82369 75.0347 9.24067C75.0347 9.24067 76.5601 7.94719 81.6251 7.99269C86.6923 8.03602 87.6158 8.91568 88.498 10.1658C89.378 11.416 89.2998 13.3291 89.0608 14.6399C88.8196 15.9507 86.362 25.2109 86.362 25.2109H81.1623C81.1623 25.2109 83.5264 16.7459 83.7415 15.4416C83.9545 14.1351 84.3673 13.2359 83.1309 13.1601C81.8946 13.0821 80.8907 13.0713 80.3887 13.0648C79.8846 13.0626 77.3271 12.6661 76.6144 14.8414C75.8626 17.1337 73.744 25.1763 73.744 25.1763L68.5855 25.2088C68.5855 25.2088 70.9084 16.2064 71.2495 15.0364C71.5907 13.8664 71.5103 13.1709 70.3043 13.1254C69.0962 13.0799 67.4252 13.0799 67.0906 13.0799C66.3887 13.0799 64.5027 12.9846 63.6531 15.8229C62.6166 19.2895 61.1673 25.1763 61.1673 25.1763" fill="#A81920"/>
<path d="M94.0671 25.1654H88.5957C88.5957 25.1654 91.4509 13.9141 91.9441 12.2956C92.4417 10.6772 93.6759 7.84104 98.6149 8.03821V12.8048C98.6149 12.8048 97.1634 12.6965 96.9223 13.717C96.6789 14.7331 94.0649 25.1654 94.0649 25.1654" fill="white"/>
<path d="M100.434 3.15895C100.434 4.90526 99.0149 6.3179 97.2657 6.3179C95.5166 6.3179 94.0977 4.90309 94.0977 3.15895C94.0977 1.41481 95.5166 0 97.2657 0C99.0149 0 100.434 1.41481 100.434 3.15895Z" fill="white"/>
<path d="M109.836 8.12921C107.654 8.12921 106.142 8.21371 104.56 8.69254C101.831 9.52019 100.797 11.2773 100.099 12.482C99.4039 13.6823 98.2219 18.0611 98.0589 19.0079C97.8373 20.2905 97.6395 22.156 98.7999 23.4993C100.367 25.3106 102.746 25.1633 103.937 25.1633H112.913L116.624 22.572L115.988 25.1633H121.359L125.998 8.12921H109.834H109.836ZM117.324 20.167C117.324 20.167 106.861 20.0804 104.788 20.1194C103.115 20.1475 103.2 19.0469 103.35 18.5009C103.502 17.9549 103.965 16.0981 104.417 14.7504C104.93 13.2208 106.292 13.0843 107.596 13.0843H119.18L117.324 20.167Z" fill="white"/>
</g>
<defs>
<clipPath id="clip0_195_65">
<rect width="126" height="33" fill="white"/>
</clipPath>
</defs>
</svg>
